<svg xmlns="http://www.w3.org/2000/svg" xmlns:xlink="http://www.w3.org/1999/xlink" width="200" zoomAndPan="magnify" viewBox="0 0 150 161.999997" height="216" preserveAspectRatio="xMidYMid meet" version="1.0"><defs><clipPath id="a5f4919472"><path d="M 43 45.054688 L 113 45.054688 L 113 117 L 43 117 Z M 43 45.054688 " clip-rule="nonzero"/></clipPath><clipPath id="dd4359c5cd"><path d="M 27.253906 62.3125 L 98.847656 37.15625 L 120.5625 98.992188 L 48.96875 124.128906 Z M 27.253906 62.3125 " clip-rule="nonzero"/></clipPath><clipPath id="fdc95ad29e"><path d="M 27.253906 62.3125 L 98.847656 37.15625 L 120.5625 98.992188 L 48.96875 124.128906 Z M 27.253906 62.3125 " clip-rule="nonzero"/></clipPath><clipPath id="56ba1151e8"><path d="M 16.296875 22.285156 L 130.101562 22.285156 L 130.101562 136.089844 L 16.296875 136.089844 Z M 16.296875 22.285156 " clip-rule="nonzero"/></clipPath></defs><g clip-path="url(#a5f4919472)"><g clip-path="url(#dd4359c5cd)"><g clip-path="url(#fdc95ad29e)"><path fill="#000000" d="M 82.425781 47.878906 L 84.429688 57.542969 C 84.683594 58.726562 84.285156 59.964844 83.390625 60.785156 L 54.667969 87.140625 C 52.703125 88.945312 49.515625 87.925781 48.96875 85.320312 L 46.96875 75.636719 C 46.710938 74.453125 47.113281 73.214844 48.003906 72.398438 L 76.730469 46.039062 C 78.695312 44.238281 81.882812 45.257812 82.425781 47.878906 Z M 73.308594 73.980469 L 44.566406 100.355469 C 43.671875 101.175781 43.289062 102.394531 43.527344 103.578125 L 45.53125 113.261719 C 46.074219 115.867188 49.261719 116.902344 51.226562 115.101562 L 79.953125 88.726562 C 80.84375 87.90625 81.246094 86.6875 80.988281 85.503906 L 78.988281 75.820312 C 78.441406 73.214844 75.253906 72.179688 73.308594 73.980469 Z M 105.164062 68.71875 L 76.4375 95.097656 C 75.546875 95.914062 75.144531 97.136719 75.402344 98.320312 L 77.402344 108.003906 C 77.949219 110.605469 81.136719 111.644531 83.082031 109.839844 L 111.824219 83.464844 C 112.71875 82.644531 113.117188 81.425781 112.863281 80.242188 L 110.859375 70.558594 C 110.316406 67.9375 107.128906 66.917969 105.164062 68.71875 Z M 105.164062 68.71875 " fill-opacity="1" fill-rule="nonzero"/></g></g></g><g clip-path="url(#56ba1151e8)"><path fill="#000000" d="M 73.199219 136.089844 C 41.761719 136.089844 16.296875 110.460938 16.296875 79.1875 C 16.296875 47.914062 41.761719 22.285156 73.199219 22.285156 C 104.636719 22.285156 130.101562 47.75 130.101562 79.1875 C 130.101562 110.625 104.472656 136.089844 73.199219 136.089844 Z M 73.199219 25.796875 C 43.691406 25.796875 19.808594 49.679688 19.808594 79.1875 C 19.808594 108.695312 43.691406 132.578125 73.199219 132.578125 C 102.707031 132.578125 126.589844 108.695312 126.589844 79.1875 C 126.589844 49.679688 102.523438 25.796875 73.199219 25.796875 Z M 73.199219 25.796875 " fill-opacity="1" fill-rule="nonzero"/></g></svg>